<svg width="23" height="23" viewBox="0 0 23 23" fill="none" xmlns="http://www.w3.org/2000/svg">
<path d="M20.3967 7.93097L14.6939 7.10216L12.1446 1.9339C12.0749 1.7924 11.9604 1.67785 11.8189 1.60822C11.464 1.43302 11.0328 1.57902 10.8553 1.9339L8.306 7.10216L2.60317 7.93097C2.44594 7.95343 2.30219 8.02755 2.19213 8.13986C2.05908 8.27662 1.98576 8.4606 1.98828 8.65139C1.99081 8.84218 2.06898 9.02416 2.20561 9.15734L6.33168 13.1801L5.35688 18.8605C5.33402 18.9926 5.34864 19.1285 5.39908 19.2528C5.44953 19.377 5.53378 19.4846 5.64228 19.5634C5.75079 19.6422 5.8792 19.6891 6.01296 19.6986C6.14672 19.7081 6.28048 19.68 6.39906 19.6174L11.4999 16.9356L16.6008 19.6174C16.7401 19.6915 16.9018 19.7162 17.0568 19.6893C17.4476 19.6219 17.7104 19.2513 17.643 18.8605L16.6682 13.1801L20.7943 9.15734C20.9066 9.04728 20.9807 8.90353 21.0032 8.7463C21.0638 8.35324 20.7898 7.98937 20.3967 7.93097Z" fill="#FFB800" fill-opacity="0.8"/>
</svg>
